<?xml version="1.0" standalone="no"?>
<!DOCTYPE svg PUBLIC "-//W3C//DTD SVG 20010904//EN"
 "http://www.w3.org/TR/2001/REC-SVG-20010904/DTD/svg10.dtd">
<svg version="1.0" xmlns="http://www.w3.org/2000/svg"
 width="640.000000pt" height="640.000000pt" viewBox="0 0 640.000000 640.000000"
 preserveAspectRatio="xMidYMid meet">
<metadata>
Created by potrace 1.14, written by Peter Selinger 2001-2017
</metadata>
<g transform="translate(0.000000,640.000000) scale(0.100000,-0.100000)"
fill="#000000" stroke="none">
<path d="M0 5353 c1 -881 3 -1042 14 -1013 183 482 419 858 760 1208 289 297
588 514 951 691 114 56 281 126 365 154 8 3 -459 6 -1037 6 l-1053 1 0 -1047z"/>
<path d="M4330 6393 c396 -132 826 -388 1163 -691 296 -267 553 -600 739 -962
58 -113 144 -301 159 -350 4 -14 8 433 8 993 l1 1017 -1042 -1 c-574 0 -1036
-3 -1028 -6z"/>
<path d="M3200 6359 c0 -13 -4 -73 -10 -134 -5 -60 -16 -222 -25 -360 -9 -137
-20 -277 -25 -310 -14 -95 -19 -125 -30 -213 -26 -194 -106 -473 -175 -612
-52 -103 -129 -210 -152 -210 -24 0 -117 75 -170 137 -25 29 -63 86 -84 126
-21 39 -39 68 -40 62 -4 -35 7 -90 33 -164 39 -112 60 -152 120 -233 94 -128
212 -214 360 -264 73 -24 89 -26 221 -22 114 3 154 8 205 26 136 48 287 167
369 290 49 74 101 199 119 284 20 93 13 105 -21 38 -39 -77 -93 -147 -161
-209 -81 -74 -98 -80 -130 -50 -36 33 -106 142 -139 214 -28 59 -32 71 -54
130 -6 17 -31 109 -55 205 -59 229 -90 484 -125 1008 -10 150 -21 276 -25 279
-3 4 -6 -5 -6 -18z"/>
<path d="M2140 5568 c0 -230 -72 -467 -175 -577 -40 -43 -44 -52 -59 -141 -46
-265 -161 -465 -309 -538 -36 -18 -74 -32 -86 -32 -26 0 -26 -11 -5 -162 10
-72 21 -120 32 -131 44 -49 270 -129 467 -167 478 -90 1071 -117 1748 -80 510
29 1042 149 1124 254 14 18 24 60 36 147 9 68 13 126 9 130 -4 3 -27 11 -51
18 -60 17 -107 49 -167 112 -100 107 -170 272 -204 483 -8 49 -17 67 -49 100
-49 52 -115 188 -141 291 -11 44 -23 130 -26 190 -2 61 -8 130 -11 155 -6 43
-7 40 -29 -69 -44 -216 -93 -400 -145 -543 -122 -336 -306 -614 -503 -760 -97
-72 -148 -99 -245 -128 -103 -32 -234 -25 -343 18 -150 59 -317 200 -440 372
-116 162 -243 433 -298 635 -12 44 -28 98 -36 120 -16 46 -59 252 -69 338 -12
94 -25 76 -25 -35z"/>
<path d="M1240 3685 c-17 -20 -27 -67 -51 -235 -49 -332 -36 -483 57 -675 71
-147 153 -256 397 -521 77 -84 176 -215 213 -280 42 -75 59 -149 69 -289 3
-49 11 -143 17 -208 l11 -117 84 -64 c111 -85 276 -151 221 -89 -39 44 -52 88
-52 168 0 63 5 89 22 122 25 48 66 83 96 83 26 0 100 -45 166 -101 26 -22 60
-43 76 -47 16 -5 88 -4 159 1 98 6 867 3 1097 -5 15 0 45 11 65 26 21 15 69
49 107 76 38 28 80 50 92 50 28 0 80 -42 100 -81 38 -75 22 -242 -28 -289 -12
-11 -19 -22 -16 -26 20 -19 155 49 262 133 63 50 62 45 76 273 6 91 15 191 21
224 25 140 109 268 342 521 244 265 333 403 384 593 31 118 35 266 10 417 -9
55 -22 146 -28 203 -22 200 -63 201 -342 8 -205 -140 -291 -173 -478 -183
-158 -8 -250 7 -438 73 -473 167 -476 167 -784 162 -224 -5 -236 -6 -338 -36
-58 -17 -178 -58 -265 -91 -216 -81 -298 -102 -429 -108 -239 -12 -397 39
-614 200 -143 106 -250 149 -281 112z m1990 -1199 c10 -58 21 -151 24 -208 12
-184 40 -307 97 -435 l28 -63 -31 0 c-17 0 -56 -11 -87 -25 l-57 -26 -54 25
c-30 14 -68 26 -84 26 -18 0 -26 4 -23 13 3 6 20 48 37 92 40 98 75 275 89
455 12 143 30 264 39 256 2 -3 13 -53 22 -110z m1228 -218 c-26 -39 -213 -230
-202 -208 15 31 81 107 149 172 38 37 71 68 73 68 2 0 -7 -15 -20 -32z m-2407
-75 c72 -74 115 -130 107 -139 -5 -4 -178 180 -191 202 -19 33 14 8 84 -63z"/>
<path d="M0 1028 l0 -1028 1002 0 c551 0 999 2 997 4 -2 2 -49 23 -104 46
-204 87 -451 222 -605 331 -42 30 -95 68 -119 84 -121 82 -387 335 -546 517
-232 266 -428 592 -580 963 l-45 110 0 -1027z"/>
<path d="M6361 1907 c-95 -229 -249 -513 -360 -665 -355 -483 -685 -776 -1192
-1060 -46 -25 -303 -144 -370 -171 -16 -6 326 -10 969 -10 l992 -1 0 995 c0
547 -1 995 -2 995 -2 0 -18 -38 -37 -83z"/>
<path d="M2710 1381 c-47 -3 -95 -11 -106 -18 -31 -18 -80 -77 -114 -137 -66
-116 -137 -169 -204 -152 -15 4 -57 35 -95 70 -102 93 -165 117 -208 79 -22
-20 -143 -339 -143 -378 0 -45 92 -215 158 -291 42 -50 121 -67 202 -44 20 5
94 46 165 90 72 44 179 106 238 137 105 54 110 58 135 111 35 72 93 105 229
134 135 28 418 22 533 -11 92 -27 147 -62 165 -104 24 -58 56 -87 144 -131 47
-23 118 -62 156 -86 190 -118 246 -144 311 -148 52 -4 69 0 100 18 49 31 109
116 162 228 l44 91 -31 88 c-17 48 -46 130 -64 181 -39 111 -55 132 -99 132
-44 -1 -84 -24 -159 -90 -100 -88 -120 -95 -189 -60 -31 16 -56 45 -115 134
-50 76 -87 122 -111 137 l-37 23 -491 2 c-270 1 -529 -1 -576 -5z"/>
<path d="M3163 765 c-12 -9 -35 -55 -58 -117 -113 -310 -181 -379 -417 -419
-247 -41 -306 -58 -292 -80 10 -17 60 -38 140 -59 281 -73 1050 -74 1337 -1
189 49 194 75 22 109 -55 11 -120 23 -145 26 -143 21 -234 60 -294 127 -44 48
-99 160 -147 297 -42 122 -87 158 -146 117z"/>
</g>
</svg>
